<mxfile host="app.diagrams.net" agent="Mozilla/5.0 (Macintosh; Intel Mac OS X 10_15_7) AppleWebKit/537.36 (KHTML, like Gecko) Chrome/133.0.0.0 Safari/537.36" version="26.0.16">
  <diagram name="第 1 页" id="IzHfFKp0vxnQDmfefHYy">
    <mxGraphModel dx="2174" dy="721" grid="0" gridSize="10" guides="1" tooltips="1" connect="1" arrows="1" fold="1" page="0" pageScale="1" pageWidth="850" pageHeight="1100" math="0" shadow="0">
      <root>
        <mxCell id="0" />
        <mxCell id="1" parent="0" />
        <mxCell id="id_LYrdKgXKD69lwhAqy-2" value="&lt;font style=&quot;font-size: 20px;&quot;&gt;视图层&lt;/font&gt;" style="shape=folder;fontStyle=1;tabWidth=501;tabHeight=46;tabPosition=left;html=1;boundedLbl=1;labelInHeader=1;container=1;collapsible=0;recursiveResize=0;whiteSpace=wrap;align=left;" vertex="1" parent="1">
          <mxGeometry x="-13" y="460" width="1029" height="169" as="geometry" />
        </mxCell>
        <mxCell id="id_LYrdKgXKD69lwhAqy-4" value="&lt;font style=&quot;font-size: 15px;&quot;&gt;基础应用功能视图&lt;/font&gt;" style="shape=folder;fontStyle=1;tabWidth=80;tabHeight=30;tabPosition=left;html=1;boundedLbl=1;whiteSpace=wrap;" vertex="1" parent="id_LYrdKgXKD69lwhAqy-2">
          <mxGeometry x="29" y="66" width="150" height="80" as="geometry" />
        </mxCell>
        <mxCell id="id_LYrdKgXKD69lwhAqy-5" value="&lt;font style=&quot;font-size: 15px;&quot;&gt;开发平台功能视图&lt;/font&gt;" style="shape=folder;fontStyle=1;tabWidth=80;tabHeight=30;tabPosition=left;html=1;boundedLbl=1;whiteSpace=wrap;" vertex="1" parent="id_LYrdKgXKD69lwhAqy-2">
          <mxGeometry x="223" y="66" width="150" height="80" as="geometry" />
        </mxCell>
        <mxCell id="id_LYrdKgXKD69lwhAqy-6" value="&lt;font style=&quot;font-size: 15px;&quot;&gt;商业智能运营功能视图&lt;/font&gt;" style="shape=folder;fontStyle=1;tabWidth=80;tabHeight=30;tabPosition=left;html=1;boundedLbl=1;whiteSpace=wrap;" vertex="1" parent="id_LYrdKgXKD69lwhAqy-2">
          <mxGeometry x="417" y="66" width="150" height="80" as="geometry" />
        </mxCell>
        <mxCell id="id_LYrdKgXKD69lwhAqy-7" value="&lt;font style=&quot;font-size: 15px;&quot;&gt;运维平台功能视图&lt;/font&gt;" style="shape=folder;fontStyle=1;tabWidth=80;tabHeight=30;tabPosition=left;html=1;boundedLbl=1;whiteSpace=wrap;" vertex="1" parent="id_LYrdKgXKD69lwhAqy-2">
          <mxGeometry x="597" y="66" width="150" height="80" as="geometry" />
        </mxCell>
        <mxCell id="id_LYrdKgXKD69lwhAqy-9" value="&lt;font style=&quot;font-size: 20px;&quot;&gt;控制层&lt;/font&gt;" style="shape=folder;fontStyle=1;tabWidth=501;tabHeight=46;tabPosition=left;html=1;boundedLbl=1;labelInHeader=1;container=1;collapsible=0;recursiveResize=0;whiteSpace=wrap;align=left;" vertex="1" parent="1">
          <mxGeometry x="-13" y="686" width="1029" height="169" as="geometry" />
        </mxCell>
        <mxCell id="id_LYrdKgXKD69lwhAqy-10" value="&lt;font style=&quot;font-size: 15px;&quot;&gt;基础应用功能控制器&lt;/font&gt;" style="shape=folder;fontStyle=1;tabWidth=80;tabHeight=30;tabPosition=left;html=1;boundedLbl=1;whiteSpace=wrap;" vertex="1" parent="id_LYrdKgXKD69lwhAqy-9">
          <mxGeometry x="29" y="66" width="150" height="80" as="geometry" />
        </mxCell>
        <mxCell id="id_LYrdKgXKD69lwhAqy-11" value="&lt;font style=&quot;font-size: 15px;&quot;&gt;开发平台功能&lt;/font&gt;&lt;span style=&quot;font-size: 15px;&quot;&gt;控制器&lt;/span&gt;" style="shape=folder;fontStyle=1;tabWidth=80;tabHeight=30;tabPosition=left;html=1;boundedLbl=1;whiteSpace=wrap;" vertex="1" parent="id_LYrdKgXKD69lwhAqy-9">
          <mxGeometry x="223" y="66" width="150" height="80" as="geometry" />
        </mxCell>
        <mxCell id="id_LYrdKgXKD69lwhAqy-12" value="&lt;font style=&quot;font-size: 15px;&quot;&gt;商业智能运营功能&lt;/font&gt;&lt;span style=&quot;font-size: 15px;&quot;&gt;控制器&lt;/span&gt;" style="shape=folder;fontStyle=1;tabWidth=80;tabHeight=30;tabPosition=left;html=1;boundedLbl=1;whiteSpace=wrap;" vertex="1" parent="id_LYrdKgXKD69lwhAqy-9">
          <mxGeometry x="417" y="66" width="150" height="80" as="geometry" />
        </mxCell>
        <mxCell id="id_LYrdKgXKD69lwhAqy-13" value="&lt;font style=&quot;font-size: 15px;&quot;&gt;运维平台功能&lt;/font&gt;&lt;span style=&quot;font-size: 15px;&quot;&gt;控制器&lt;/span&gt;" style="shape=folder;fontStyle=1;tabWidth=80;tabHeight=30;tabPosition=left;html=1;boundedLbl=1;whiteSpace=wrap;" vertex="1" parent="id_LYrdKgXKD69lwhAqy-9">
          <mxGeometry x="597" y="66" width="150" height="80" as="geometry" />
        </mxCell>
        <mxCell id="id_LYrdKgXKD69lwhAqy-14" value="&lt;font style=&quot;font-size: 20px;&quot;&gt;逻辑层&lt;/font&gt;" style="shape=folder;fontStyle=1;tabWidth=501;tabHeight=46;tabPosition=left;html=1;boundedLbl=1;labelInHeader=1;container=1;collapsible=0;recursiveResize=0;whiteSpace=wrap;align=left;" vertex="1" parent="1">
          <mxGeometry x="-13" y="915" width="1029" height="169" as="geometry" />
        </mxCell>
        <mxCell id="id_LYrdKgXKD69lwhAqy-15" value="&lt;font style=&quot;font-size: 15px;&quot;&gt;基础应用功能&lt;/font&gt;" style="shape=folder;fontStyle=1;tabWidth=80;tabHeight=30;tabPosition=left;html=1;boundedLbl=1;whiteSpace=wrap;" vertex="1" parent="id_LYrdKgXKD69lwhAqy-14">
          <mxGeometry x="29" y="66" width="150" height="80" as="geometry" />
        </mxCell>
        <mxCell id="id_LYrdKgXKD69lwhAqy-16" value="&lt;font style=&quot;font-size: 15px;&quot;&gt;开发平台功能&lt;/font&gt;" style="shape=folder;fontStyle=1;tabWidth=80;tabHeight=30;tabPosition=left;html=1;boundedLbl=1;whiteSpace=wrap;" vertex="1" parent="id_LYrdKgXKD69lwhAqy-14">
          <mxGeometry x="223" y="66" width="150" height="80" as="geometry" />
        </mxCell>
        <mxCell id="id_LYrdKgXKD69lwhAqy-17" value="&lt;font style=&quot;font-size: 15px;&quot;&gt;商业智能运营功能&lt;/font&gt;" style="shape=folder;fontStyle=1;tabWidth=80;tabHeight=30;tabPosition=left;html=1;boundedLbl=1;whiteSpace=wrap;" vertex="1" parent="id_LYrdKgXKD69lwhAqy-14">
          <mxGeometry x="417" y="66" width="150" height="80" as="geometry" />
        </mxCell>
        <mxCell id="id_LYrdKgXKD69lwhAqy-18" value="&lt;font style=&quot;font-size: 15px;&quot;&gt;运维平台功能&lt;/font&gt;" style="shape=folder;fontStyle=1;tabWidth=80;tabHeight=30;tabPosition=left;html=1;boundedLbl=1;whiteSpace=wrap;" vertex="1" parent="id_LYrdKgXKD69lwhAqy-14">
          <mxGeometry x="597" y="66" width="150" height="80" as="geometry" />
        </mxCell>
        <mxCell id="id_LYrdKgXKD69lwhAqy-33" value="&lt;font style=&quot;font-size: 15px;&quot;&gt;对象存储&lt;/font&gt;" style="shape=folder;fontStyle=1;tabWidth=80;tabHeight=30;tabPosition=left;html=1;boundedLbl=1;whiteSpace=wrap;" vertex="1" parent="id_LYrdKgXKD69lwhAqy-14">
          <mxGeometry x="800" y="66" width="150" height="80" as="geometry" />
        </mxCell>
        <mxCell id="id_LYrdKgXKD69lwhAqy-19" value="&lt;span style=&quot;font-size: 20px;&quot;&gt;数据层&lt;/span&gt;" style="shape=folder;fontStyle=1;tabWidth=501;tabHeight=46;tabPosition=left;html=1;boundedLbl=1;labelInHeader=1;container=1;collapsible=0;recursiveResize=0;whiteSpace=wrap;align=left;" vertex="1" parent="1">
          <mxGeometry x="-13" y="1144" width="1029" height="169" as="geometry" />
        </mxCell>
        <mxCell id="id_LYrdKgXKD69lwhAqy-20" value="&lt;font style=&quot;font-size: 15px;&quot;&gt;基础应用功能Dao&lt;/font&gt;" style="shape=folder;fontStyle=1;tabWidth=80;tabHeight=30;tabPosition=left;html=1;boundedLbl=1;whiteSpace=wrap;" vertex="1" parent="id_LYrdKgXKD69lwhAqy-19">
          <mxGeometry x="29" y="66" width="150" height="80" as="geometry" />
        </mxCell>
        <mxCell id="id_LYrdKgXKD69lwhAqy-21" value="&lt;font style=&quot;font-size: 15px;&quot;&gt;开发平台功能&lt;/font&gt;&lt;span style=&quot;font-size: 15px;&quot;&gt;Dao&lt;/span&gt;" style="shape=folder;fontStyle=1;tabWidth=80;tabHeight=30;tabPosition=left;html=1;boundedLbl=1;whiteSpace=wrap;" vertex="1" parent="id_LYrdKgXKD69lwhAqy-19">
          <mxGeometry x="223" y="66" width="150" height="80" as="geometry" />
        </mxCell>
        <mxCell id="id_LYrdKgXKD69lwhAqy-22" value="&lt;font style=&quot;font-size: 15px;&quot;&gt;商业智能运营功能&lt;/font&gt;&lt;span style=&quot;font-size: 15px;&quot;&gt;Dao&lt;/span&gt;" style="shape=folder;fontStyle=1;tabWidth=80;tabHeight=30;tabPosition=left;html=1;boundedLbl=1;whiteSpace=wrap;" vertex="1" parent="id_LYrdKgXKD69lwhAqy-19">
          <mxGeometry x="417" y="66" width="150" height="80" as="geometry" />
        </mxCell>
        <mxCell id="id_LYrdKgXKD69lwhAqy-23" value="&lt;font style=&quot;font-size: 15px;&quot;&gt;运维平台功能&lt;/font&gt;&lt;span style=&quot;font-size: 15px;&quot;&gt;Dao&lt;/span&gt;" style="shape=folder;fontStyle=1;tabWidth=80;tabHeight=30;tabPosition=left;html=1;boundedLbl=1;whiteSpace=wrap;" vertex="1" parent="id_LYrdKgXKD69lwhAqy-19">
          <mxGeometry x="597" y="66" width="150" height="80" as="geometry" />
        </mxCell>
        <mxCell id="id_LYrdKgXKD69lwhAqy-34" value="&lt;font style=&quot;font-size: 15px;&quot;&gt;运维平台功能&lt;/font&gt;&lt;span style=&quot;font-size: 15px;&quot;&gt;Dao&lt;/span&gt;" style="shape=folder;fontStyle=1;tabWidth=80;tabHeight=30;tabPosition=left;html=1;boundedLbl=1;whiteSpace=wrap;" vertex="1" parent="id_LYrdKgXKD69lwhAqy-19">
          <mxGeometry x="801" y="66" width="150" height="80" as="geometry" />
        </mxCell>
        <mxCell id="id_LYrdKgXKD69lwhAqy-24" value="&lt;font style=&quot;font-size: 15px;&quot;&gt;VO&lt;/font&gt;" style="shape=folder;fontStyle=1;tabWidth=80;tabHeight=30;tabPosition=left;html=1;boundedLbl=1;whiteSpace=wrap;" vertex="1" parent="1">
          <mxGeometry x="1124" y="647" width="150" height="80" as="geometry" />
        </mxCell>
        <mxCell id="id_LYrdKgXKD69lwhAqy-25" value="&lt;font style=&quot;font-size: 15px;&quot;&gt;BO&lt;/font&gt;&lt;span style=&quot;color: rgba(0, 0, 0, 0); font-family: monospace; font-size: 0px; font-weight: 400; text-align: start; text-wrap-mode: nowrap;&quot;&gt;%3CmxGraphModel%3E%3Croot%3E%3CmxCell%20id%3D%220%22%2F%3E%3CmxCell%20id%3D%221%22%20parent%3D%220%22%2F%3E%3CmxCell%20id%3D%222%22%20value%3D%22%26lt%3Bfont%20style%3D%26quot%3Bfont-size%3A%2015px%3B%26quot%3B%26gt%3BVO%26lt%3B%2Ffont%26gt%3B%22%20style%3D%22shape%3Dfolder%3BfontStyle%3D1%3BtabWidth%3D80%3BtabHeight%3D30%3BtabPosition%3Dleft%3Bhtml%3D1%3BboundedLbl%3D1%3BwhiteSpace%3Dwrap%3B%22%20vertex%3D%221%22%20parent%3D%221%22%3E%3CmxGeometry%20x%3D%221124%22%20y%3D%22647%22%20width%3D%22150%22%20height%3D%2280%22%20as%3D%22geometry%22%2F%3E%3C%2FmxCell%3E%3C%2Froot%3E%3C%2FmxGraphModel%3E&lt;/span&gt;" style="shape=folder;fontStyle=1;tabWidth=80;tabHeight=30;tabPosition=left;html=1;boundedLbl=1;whiteSpace=wrap;" vertex="1" parent="1">
          <mxGeometry x="1124" y="886" width="150" height="80" as="geometry" />
        </mxCell>
        <mxCell id="id_LYrdKgXKD69lwhAqy-26" value="&lt;span style=&quot;font-size: 15px;&quot;&gt;DTO&lt;/span&gt;" style="shape=folder;fontStyle=1;tabWidth=80;tabHeight=30;tabPosition=left;html=1;boundedLbl=1;whiteSpace=wrap;" vertex="1" parent="1">
          <mxGeometry x="1124" y="1117" width="150" height="80" as="geometry" />
        </mxCell>
        <mxCell id="id_LYrdKgXKD69lwhAqy-27" value="" style="endArrow=classic;html=1;rounded=0;entryX=0;entryY=0;entryDx=0;entryDy=55;entryPerimeter=0;exitX=0;exitY=0;exitDx=1029;exitDy=107.5;exitPerimeter=0;" edge="1" parent="1" source="id_LYrdKgXKD69lwhAqy-2" target="id_LYrdKgXKD69lwhAqy-24">
          <mxGeometry width="50" height="50" relative="1" as="geometry">
            <mxPoint x="539" y="965" as="sourcePoint" />
            <mxPoint x="589" y="915" as="targetPoint" />
          </mxGeometry>
        </mxCell>
        <mxCell id="id_LYrdKgXKD69lwhAqy-28" value="" style="endArrow=classic;html=1;rounded=0;entryX=0;entryY=0;entryDx=0;entryDy=55;entryPerimeter=0;exitX=0;exitY=0;exitDx=1029;exitDy=107.5;exitPerimeter=0;" edge="1" parent="1" source="id_LYrdKgXKD69lwhAqy-9" target="id_LYrdKgXKD69lwhAqy-24">
          <mxGeometry width="50" height="50" relative="1" as="geometry">
            <mxPoint x="1026" y="578" as="sourcePoint" />
            <mxPoint x="1134" y="712" as="targetPoint" />
          </mxGeometry>
        </mxCell>
        <mxCell id="id_LYrdKgXKD69lwhAqy-29" value="" style="endArrow=classic;html=1;rounded=0;entryX=0;entryY=0;entryDx=0;entryDy=55;entryPerimeter=0;exitX=0;exitY=0;exitDx=1029;exitDy=107.5;exitPerimeter=0;" edge="1" parent="1" source="id_LYrdKgXKD69lwhAqy-14" target="id_LYrdKgXKD69lwhAqy-25">
          <mxGeometry width="50" height="50" relative="1" as="geometry">
            <mxPoint x="1026" y="804" as="sourcePoint" />
            <mxPoint x="1134" y="712" as="targetPoint" />
          </mxGeometry>
        </mxCell>
        <mxCell id="id_LYrdKgXKD69lwhAqy-30" value="" style="endArrow=classic;html=1;rounded=0;entryX=0;entryY=0;entryDx=0;entryDy=55;entryPerimeter=0;exitX=0;exitY=0;exitDx=1029;exitDy=107.5;exitPerimeter=0;" edge="1" parent="1" source="id_LYrdKgXKD69lwhAqy-9" target="id_LYrdKgXKD69lwhAqy-25">
          <mxGeometry width="50" height="50" relative="1" as="geometry">
            <mxPoint x="1026" y="1032" as="sourcePoint" />
            <mxPoint x="1134" y="951" as="targetPoint" />
          </mxGeometry>
        </mxCell>
        <mxCell id="id_LYrdKgXKD69lwhAqy-31" value="" style="endArrow=classic;html=1;rounded=0;entryX=0;entryY=0;entryDx=0;entryDy=55;entryPerimeter=0;exitX=0;exitY=0;exitDx=1029;exitDy=107.5;exitPerimeter=0;" edge="1" parent="1" source="id_LYrdKgXKD69lwhAqy-14" target="id_LYrdKgXKD69lwhAqy-26">
          <mxGeometry width="50" height="50" relative="1" as="geometry">
            <mxPoint x="1026" y="804" as="sourcePoint" />
            <mxPoint x="1134" y="951" as="targetPoint" />
          </mxGeometry>
        </mxCell>
        <mxCell id="id_LYrdKgXKD69lwhAqy-32" value="" style="endArrow=classic;html=1;rounded=0;entryX=0;entryY=0;entryDx=0;entryDy=55;entryPerimeter=0;exitX=0;exitY=0;exitDx=1029;exitDy=107.5;exitPerimeter=0;" edge="1" parent="1" source="id_LYrdKgXKD69lwhAqy-19" target="id_LYrdKgXKD69lwhAqy-26">
          <mxGeometry width="50" height="50" relative="1" as="geometry">
            <mxPoint x="1026" y="1032" as="sourcePoint" />
            <mxPoint x="1134" y="1182" as="targetPoint" />
          </mxGeometry>
        </mxCell>
        <mxCell id="id_LYrdKgXKD69lwhAqy-35" value="" style="endArrow=classic;html=1;rounded=0;dashed=1;dashPattern=8 8;entryX=0.471;entryY=0.034;entryDx=0;entryDy=0;entryPerimeter=0;exitX=0.5;exitY=1;exitDx=0;exitDy=0;exitPerimeter=0;" edge="1" parent="1" source="id_LYrdKgXKD69lwhAqy-4" target="id_LYrdKgXKD69lwhAqy-10">
          <mxGeometry width="50" height="50" relative="1" as="geometry">
            <mxPoint x="-359.34999999999945" y="381.72000000000025" as="sourcePoint" />
            <mxPoint x="-409.34999999999945" y="431.72000000000025" as="targetPoint" />
          </mxGeometry>
        </mxCell>
      </root>
    </mxGraphModel>
  </diagram>
</mxfile>
